<?xml version="1.0" encoding="utf-8"?>
<!-- Generator: Adobe Illustrator 25.0.1, SVG Export Plug-In . SVG Version: 6.00 Build 0)  -->
<svg version="1.1" id="Calque_3" xmlns="http://www.w3.org/2000/svg" xmlns:xlink="http://www.w3.org/1999/xlink" x="0px" y="0px"
     viewBox="0 0 308.8 101" style="enable-background:new 0 0 308.8 101;" xml:space="preserve">
<style type="text/css">
    .st0{fill:#FFFFFF;}
</style>
<g>
    <g>
        <g>
            <path class="st0" d="M51.1,56c5.3-5.3,8-11.8,8-19.4c0-7.5-2.7-14-8-19.3c-1.6-1.6-3.3-2.9-5.1-4L43.6,20
                c0.9,0.7,1.8,1.4,2.6,2.2c4,4,6,8.8,6,14.4c0,5.7-2,10.5-6,14.5c-4,4-8.8,6-14.4,6h-1.5l-0.5,1.4l-2,5.5h4l18.5,27.8h8.4L40,62.9
                C43.7,62,47.4,59.7,51.1,56z"/>
        </g>
    </g>
    <g>
        <polygon class="st0" points="9.2,91.8 37.7,13.2 39.3,13.2 10.9,91.8         "/>
    </g>
</g>
<g>
    <g>
        <path class="st0" d="M84.5,42.6h-4.5v10h-2.5V22.9h8c2.3,0.3,4.3,1.3,5.9,2.9c1.9,1.9,2.9,4.2,2.9,7c0,2.7-1,5.1-2.9,7
            c-1.3,1.3-2.7,2.2-4,2.5l6.8,10.4h-3L84.5,42.6z M80.1,25.4v14.7h4.5c2,0,3.8-0.7,5.2-2.2c1.4-1.4,2.2-3.2,2.2-5.2
            c0-2-0.7-3.8-2.2-5.2c-1.4-1.4-3.2-2.1-5.2-2.1H80.1z"/>
        <path class="st0" d="M95.1,53H91l-6.7-10h-3.8v10h-3.3V22.4h8.5c2.5,0.3,4.5,1.3,6.2,3c2,2,3,4.4,3,7.3c0,2.8-1,5.3-3,7.3
            c-1.2,1.2-2.4,2-3.6,2.4L95.1,53z M91.5,52.2h2l-6.7-10.3l0.6-0.1c1.3-0.3,2.5-1.1,3.8-2.4c1.8-1.8,2.8-4.1,2.8-6.7
            c0-2.6-0.9-4.8-2.8-6.7c-1.5-1.5-3.4-2.5-5.6-2.8l-7.6,0v28.9h1.6v-10h5.1L91.5,52.2z M84.5,40.5h-4.9V24.9h4.9
            c2.1,0,4,0.8,5.5,2.3c1.5,1.5,2.3,3.4,2.3,5.5c0,2.1-0.8,4-2.3,5.5C88.5,39.7,86.7,40.5,84.5,40.5z M80.5,39.7h4
            c1.9,0,3.5-0.7,4.9-2c1.4-1.4,2-3,2-4.9c0-1.9-0.7-3.5-2-4.9c-1.4-1.4-3-2-4.9-2h-4V39.7z"/>
    </g>
    <g>
        <path class="st0" d="M115,22.9v2.5h-12.8v11.1H115V39h-12.8v11.1H115v2.5H99.7V22.9H115z M112.5,16.3l-5.6,4.2h-2.6l3.7-4.2H112.5
            z"/>
        <path class="st0" d="M115.4,53H99.2V22.4h16.2v3.3h-12.8v10.3h12.8v3.3h-12.8v10.3h12.8V53z M100.1,52.2h14.4v-1.6h-12.8v-12h12.8
            v-1.6h-12.8v-12h12.8v-1.6h-14.4V52.2z M107.1,21h-3.7l4.5-5.1h5.9L107.1,21z M105.3,20.1h1.5l4.4-3.4h-3L105.3,20.1z"/>
    </g>
    <g>
        <path class="st0" d="M122.3,22.9l8.7,24l8.7-24h2.7L131,54.1l-11.4-31.2H122.3z"/>
        <path class="st0" d="M131,55.3l-12-32.9h3.5l8.4,23.2l8.4-23.2h3.6L131,55.3z M120.2,23.3L131,52.8l10.8-29.6H140l-9,24.8l-9-24.8
            H120.2z"/>
    </g>
    <g>
        <path class="st0" d="M162.8,22.9v2.5H150v11.1h12.8V39H150v11.1h12.8v2.5h-15.3V22.9H162.8z M160.4,16.3l-5.6,4.2h-2.6l3.7-4.2
            H160.4z"/>
        <path class="st0" d="M163.3,53h-16.2V22.4h16.2v3.3h-12.8v10.3h12.8v3.3h-12.8v10.3h12.8V53z M148,52.2h14.4v-1.6h-12.8v-12h12.8
            v-1.6h-12.8v-12h12.8v-1.6H148V52.2z M155,21h-3.7l4.5-5.1h5.9L155,21z M153.2,20.1h1.5l4.4-3.4h-3L153.2,20.1z"/>
    </g>
    <g>
        <path class="st0" d="M169.5,52.6V22.9h2.5v27.2h11.2v2.5H169.5z"/>
        <path class="st0" d="M183.6,53h-14.5V22.4h3.3v27.2h11.2V53z M169.9,52.2h12.8v-1.6h-11.2V23.3h-1.6V52.2z"/>
    </g>
    <g>
        <path class="st0" d="M203.2,41.5h-9.4l-4,11.1h-2.6l11.4-31.2l11.4,31.2h-2.6L203.2,41.5z M202.3,39l-3.8-10.4L194.7,39H202.3z"/>
        <path class="st0" d="M210.5,53h-3.6l-4-11.1h-8.8l-4,11.1h-3.6l12-32.9L210.5,53z M207.5,52.2h1.7l-10.7-29.6l-10.8,29.6h1.7
            l4-11.1h10L207.5,52.2z M202.9,39.5h-8.8l4.4-12.1L202.9,39.5z M195.3,38.6h6.4l-3.2-8.7L195.3,38.6z"/>
    </g>
    <g>
        <path class="st0" d="M221.4,25.4v27.2H219V25.4h-7.3v-2.5h17.1v2.5H221.4z"/>
        <path class="st0" d="M221.9,53h-3.3V25.8h-7.3v-3.3h18v3.3h-7.3V53z M219.4,52.2h1.6V24.9h7.3v-1.6h-16.3v1.6h7.3V52.2z"/>
    </g>
    <g>
        <path class="st0" d="M249.2,22.9v2.5h-12.8v11.1h12.8V39h-12.8v11.1h12.8v2.5h-15.3V22.9H249.2z"/>
        <path class="st0" d="M249.7,53h-16.2V22.4h16.2v3.3h-12.8v10.3h12.8v3.3h-12.8v10.3h12.8V53z M234.4,52.2h14.4v-1.6H236v-12h12.8
            v-1.6H236v-12h12.8v-1.6h-14.4V52.2z"/>
    </g>
    <g>
        <path class="st0" d="M273.1,22.9h2.5v21.2c-0.3,2.3-1.3,4.3-2.9,5.9c-1.9,1.9-4.2,2.9-7,2.9c-2.7,0-5.1-1-7-2.9
            c-1.9-1.9-2.9-4.2-2.9-7V22.9h2.5V43c0,2,0.7,3.7,2.2,5.2c1.4,1.4,3.2,2.2,5.2,2.2c2,0,3.8-0.7,5.2-2.2c1.4-1.4,2.1-3.2,2.1-5.2
            V22.9z"/>
        <path class="st0" d="M265.7,53.3c-2.8,0-5.3-1-7.3-3c-2-2-3-4.4-3-7.3V22.4h3.4V43c0,1.9,0.7,3.5,2,4.9c1.4,1.4,3,2,4.9,2
            c1.9,0,3.5-0.7,4.9-2c1.3-1.3,2-3,2-4.9V22.4h3.3v21.6c-0.3,2.5-1.3,4.5-3,6.2C271,52.3,268.6,53.3,265.7,53.3z M256.3,23.3V43
            c0,2.6,0.9,4.8,2.8,6.7c1.8,1.8,4.1,2.8,6.7,2.8c2.6,0,4.8-0.9,6.7-2.8c1.5-1.5,2.5-3.4,2.8-5.7l0-20.7h-1.6V43
            c0,2.1-0.8,4-2.3,5.5c-1.5,1.5-3.4,2.3-5.5,2.3c-2.1,0-4-0.8-5.5-2.3c-1.5-1.5-2.3-3.4-2.3-5.5V23.3H256.3z"/>
    </g>
    <g>
        <path class="st0" d="M289.7,42.6h-4.5v10h-2.5V22.9h8c2.3,0.3,4.3,1.3,5.9,2.9c1.9,1.9,2.9,4.2,2.9,7c0,2.7-1,5.1-2.9,7
            c-1.3,1.3-2.7,2.2-4,2.5l6.8,10.4h-3L289.7,42.6z M285.2,25.4v14.7h4.5c2,0,3.8-0.7,5.2-2.2c1.4-1.4,2.2-3.2,2.2-5.2
            c0-2-0.7-3.8-2.2-5.2c-1.4-1.4-3.2-2.1-5.2-2.1H285.2z"/>
        <path class="st0" d="M300.2,53h-4.1l-6.7-10h-3.8v10h-3.3V22.4h8.5c2.5,0.3,4.5,1.3,6.2,3c2,2,3,4.4,3,7.3c0,2.8-1,5.3-3,7.3
            c-1.2,1.2-2.4,2-3.6,2.4L300.2,53z M296.6,52.2h2L292,41.9l0.6-0.1c1.3-0.3,2.5-1.1,3.8-2.4c1.8-1.8,2.8-4.1,2.8-6.7
            c0-2.6-0.9-4.8-2.8-6.7c-1.5-1.5-3.4-2.5-5.6-2.8l-7.6,0v28.9h1.6v-10h5.1L296.6,52.2z M289.7,40.5h-4.9V24.9h4.9
            c2.1,0,4,0.8,5.5,2.3c1.5,1.5,2.3,3.4,2.3,5.5c0,2.1-0.8,4-2.3,5.5C293.7,39.7,291.8,40.5,289.7,40.5z M285.6,39.7h4
            c1.9,0,3.5-0.7,4.9-2c1.3-1.3,2-3,2-4.9c0-1.9-0.7-3.5-2-4.9c-1.4-1.4-3-2-4.9-2h-4V39.7z"/>
    </g>
    <g>
        <path class="st0" d="M109.7,70.4c0.7,0.3,1.3,0.8,1.6,1.5c0.4,0.7,0.6,1.6,0.6,2.8v10h-0.8l-0.1-1.7h-0.1
            c-0.5,0.6-1.1,1.1-1.9,1.4c-0.8,0.3-1.6,0.5-2.5,0.5c-1.3,0-2.3-0.3-3.1-1c-0.7-0.7-1.1-1.6-1.1-2.8c0-1.2,0.4-2.1,1.2-2.8
            c0.8-0.7,2-1.1,3.6-1.3l3.8-0.5v-1.8c0-1-0.2-1.7-0.5-2.3c-0.3-0.6-0.7-0.9-1.3-1.2c-0.6-0.2-1.3-0.3-2.2-0.3
            c-0.6,0-1.2,0.1-1.9,0.2c-0.7,0.1-1.3,0.3-2,0.5v-0.9c0.5-0.2,1.2-0.4,1.9-0.5c0.7-0.1,1.4-0.2,2-0.2
            C108.1,70,109,70.1,109.7,70.4z M109,83.4c0.8-0.4,1.4-0.9,2-1.7v-4.3l-3.9,0.5c-1.3,0.2-2.3,0.5-2.9,1c-0.6,0.5-0.9,1.2-0.9,2.1
            c0,1,0.3,1.7,0.8,2.2c0.5,0.5,1.4,0.8,2.4,0.8C107.4,84,108.2,83.8,109,83.4z"/>
    </g>
    <g>
        <path class="st0" d="M119,90.6c-0.7-0.1-1.3-0.3-1.9-0.5v-0.9c1.4,0.5,2.7,0.7,3.9,0.7c1.1,0,2-0.2,2.7-0.5
            c0.7-0.3,1.2-0.9,1.6-1.6c0.4-0.7,0.5-1.7,0.5-3v-1.7h-0.1c-0.5,0.5-1.1,0.9-1.8,1.3c-0.7,0.3-1.5,0.5-2.4,0.5c-1.6,0-3-0.6-4-1.7
            c-1-1.1-1.5-2.9-1.5-5.5c0-5.1,2.3-7.7,6.8-7.7c0.6,0,1.3,0,1.9,0.1c0.7,0.1,1.3,0.2,1.8,0.4v14.2c0,2.1-0.5,3.7-1.4,4.6
            c-1,0.9-2.4,1.4-4.4,1.4C120.4,90.8,119.8,90.7,119,90.6z M124.1,83.4c0.7-0.4,1.3-0.9,1.8-1.6V71.2c-0.4-0.1-0.9-0.2-1.4-0.3
            c-0.5-0.1-1-0.1-1.6-0.1c-1.9,0-3.4,0.5-4.3,1.6c-1,1.1-1.4,2.8-1.4,5.1c0,2.3,0.4,4,1.2,4.9c0.8,1,1.9,1.4,3.3,1.4
            C122.6,84,123.4,83.8,124.1,83.4z"/>
    </g>
    <g>
        <path class="st0" d="M141.9,77.8h-9.5c0,2.2,0.5,3.8,1.4,4.7c0.9,1,2.2,1.4,3.9,1.4c1,0,2.2-0.2,3.6-0.7v0.9
            c-1.2,0.4-2.5,0.6-3.6,0.6c-2,0-3.6-0.6-4.6-1.8c-1-1.2-1.6-3.1-1.6-5.7c0-2.5,0.5-4.4,1.4-5.6c0.9-1.2,2.2-1.8,3.9-1.8
            c3.4,0,5.1,2.5,5.1,7.4V77.8z M133.5,72.3c-0.8,1-1.2,2.5-1.2,4.6h8.6c0-2.1-0.4-3.7-1.1-4.6c-0.7-0.9-1.7-1.4-3.1-1.4
            C135.3,70.9,134.3,71.4,133.5,72.3z"/>
    </g>
    <g>
        <path class="st0" d="M146.2,70.2h0.8l0.1,1.7h0.1c0.6-0.6,1.3-1.1,2.1-1.4c0.8-0.3,1.7-0.5,2.5-0.5c3,0,4.5,1.6,4.5,4.8v9.8h-0.9
            v-9.8c0-1.4-0.3-2.4-0.9-3c-0.6-0.6-1.5-0.9-2.7-0.9c-0.8,0-1.7,0.2-2.6,0.6c-0.9,0.4-1.6,1-2.2,1.8v11.4h-0.9V70.2z"/>
    </g>
    <g>
        <path class="st0" d="M162.1,83.1c-1-1.2-1.5-3.1-1.5-5.7c0-2.6,0.5-4.5,1.6-5.7c1.1-1.2,2.6-1.8,4.7-1.8c1,0,1.9,0.1,2.8,0.4v0.9
            c-0.9-0.3-1.9-0.4-2.8-0.4c-1.2,0-2.2,0.2-3,0.6c-0.8,0.4-1.4,1.1-1.8,2.1c-0.4,1-0.6,2.2-0.6,3.8c0,1.6,0.2,2.9,0.5,3.9
            c0.4,1,0.9,1.7,1.6,2.1c0.7,0.4,1.6,0.6,2.7,0.6c1,0,2.1-0.2,3.3-0.7v0.9c-1.1,0.4-2.3,0.6-3.4,0.6
            C164.5,84.9,163.1,84.3,162.1,83.1z"/>
    </g>
    <g>
        <path class="st0" d="M182.8,77.8h-9.5c0,2.2,0.5,3.8,1.4,4.7c0.9,1,2.2,1.4,3.9,1.4c1,0,2.2-0.2,3.6-0.7v0.9
            c-1.2,0.4-2.5,0.6-3.6,0.6c-2,0-3.6-0.6-4.6-1.8c-1-1.2-1.6-3.1-1.6-5.7c0-2.5,0.5-4.4,1.4-5.6c0.9-1.2,2.2-1.8,3.9-1.8
            c3.4,0,5.1,2.5,5.1,7.4V77.8z M174.5,72.3c-0.8,1-1.2,2.5-1.2,4.6h8.6c0-2.1-0.4-3.7-1.1-4.6c-0.7-0.9-1.7-1.4-3.1-1.4
            C176.3,70.9,175.3,71.4,174.5,72.3z"/>
    </g>
    <g>
        <path class="st0" d="M195,83.2c-1-1.1-1.5-3-1.5-5.4c0-2.6,0.6-4.6,1.7-5.8c1.2-1.3,2.9-1.9,5.2-1.9c0.9,0,1.8,0.1,2.7,0.2v-7.2
            h0.9v21.6h-0.8l-0.1-1.6h-0.1c-0.5,0.6-1,1-1.7,1.3c-0.7,0.3-1.5,0.5-2.3,0.5C197.4,84.9,196,84.3,195,83.2z M201.4,83.4
            c0.7-0.4,1.3-0.9,1.8-1.7V71.2c-0.4-0.1-0.8-0.2-1.3-0.2c-0.5-0.1-1-0.1-1.5-0.1c-2,0-3.5,0.5-4.5,1.6c-1,1.1-1.5,2.8-1.5,5.1
            c0,2.3,0.4,4,1.2,4.9c0.8,1,1.9,1.4,3.4,1.4C199.9,84,200.7,83.8,201.4,83.4z"/>
    </g>
    <g>
        <path class="st0" d="M209.3,66.2c-0.2-0.2-0.2-0.4-0.2-0.6s0.1-0.5,0.2-0.6c0.2-0.2,0.4-0.2,0.6-0.2s0.4,0.1,0.6,0.2
            c0.2,0.2,0.2,0.4,0.2,0.6s-0.1,0.4-0.2,0.6c-0.2,0.2-0.4,0.2-0.6,0.2S209.5,66.4,209.3,66.2z M209.5,84.6V70.2h0.9v14.4H209.5z"/>
    </g>
    <g>
        <path class="st0" d="M217.7,90.6c-0.7-0.1-1.3-0.3-1.9-0.5v-0.9c1.4,0.5,2.7,0.7,3.9,0.7c1.1,0,2-0.2,2.7-0.5
            c0.7-0.3,1.2-0.9,1.6-1.6c0.4-0.7,0.5-1.7,0.5-3v-1.7h-0.1c-0.5,0.5-1.1,0.9-1.8,1.3c-0.7,0.3-1.5,0.5-2.4,0.5c-1.6,0-3-0.6-4-1.7
            c-1-1.1-1.5-2.9-1.5-5.5c0-5.1,2.3-7.7,6.8-7.7c0.6,0,1.3,0,1.9,0.1c0.7,0.1,1.3,0.2,1.8,0.4v14.2c0,2.1-0.5,3.7-1.4,4.6
            c-1,0.9-2.4,1.4-4.4,1.4C219.1,90.8,218.4,90.7,217.7,90.6z M222.8,83.4c0.7-0.4,1.3-0.9,1.8-1.6V71.2c-0.4-0.1-0.9-0.2-1.4-0.3
            c-0.5-0.1-1-0.1-1.6-0.1c-1.9,0-3.4,0.5-4.3,1.6c-1,1.1-1.4,2.8-1.4,5.1c0,2.3,0.4,4,1.2,4.9c0.8,1,1.9,1.4,3.3,1.4
            C221.3,84,222,83.8,222.8,83.4z"/>
    </g>
    <g>
        <path class="st0" d="M230.7,66.2c-0.2-0.2-0.2-0.4-0.2-0.6s0.1-0.5,0.2-0.6c0.2-0.2,0.4-0.2,0.6-0.2s0.4,0.1,0.6,0.2
            c0.2,0.2,0.2,0.4,0.2,0.6s-0.1,0.4-0.2,0.6c-0.2,0.2-0.4,0.2-0.6,0.2S230.9,66.4,230.7,66.2z M230.9,84.6V70.2h0.9v14.4H230.9z"/>
    </g>
    <g>
        <path class="st0" d="M244.1,83.7v0.9c-0.7,0.2-1.3,0.2-1.9,0.2c-2.8,0-4.2-1.5-4.2-4.4v-9.4H235v-0.9h2.9l0.1-5.3h0.8v5.3h4.9v0.9
            h-4.9v9.3c0,1.3,0.3,2.2,0.8,2.8c0.6,0.6,1.4,0.9,2.5,0.9C242.7,84,243.3,83.9,244.1,83.7z"/>
    </g>
    <g>
        <path class="st0" d="M253.7,70.4c0.7,0.3,1.3,0.8,1.6,1.5c0.4,0.7,0.6,1.6,0.6,2.8v10h-0.8l-0.1-1.7H255c-0.5,0.6-1.1,1.1-1.9,1.4
            c-0.8,0.3-1.6,0.5-2.5,0.5c-1.3,0-2.3-0.3-3.1-1c-0.7-0.7-1.1-1.6-1.1-2.8c0-1.2,0.4-2.1,1.2-2.8c0.8-0.7,2-1.1,3.6-1.3l3.8-0.5
            v-1.8c0-1-0.2-1.7-0.5-2.3c-0.3-0.6-0.7-0.9-1.3-1.2c-0.6-0.2-1.3-0.3-2.2-0.3c-0.6,0-1.2,0.1-1.9,0.2c-0.7,0.1-1.3,0.3-2,0.5
            v-0.9c0.5-0.2,1.2-0.4,1.9-0.5c0.7-0.1,1.4-0.2,2-0.2C252.1,70,253,70.1,253.7,70.4z M253,83.4c0.8-0.4,1.4-0.9,2-1.7v-4.3
            l-3.9,0.5c-1.3,0.2-2.3,0.5-2.9,1c-0.6,0.5-0.9,1.2-0.9,2.1c0,1,0.3,1.7,0.8,2.2c0.5,0.5,1.4,0.8,2.4,0.8
            C251.5,84,252.3,83.8,253,83.4z"/>
    </g>
    <g>
        <path class="st0" d="M261.1,84.6V63.1h0.9v21.6H261.1z"/>
    </g>
    <g>
        <path class="st0" d="M277,77.8h-9.5c0,2.2,0.5,3.8,1.4,4.7c0.9,1,2.2,1.4,3.9,1.4c1,0,2.2-0.2,3.6-0.7v0.9
            c-1.2,0.4-2.5,0.6-3.6,0.6c-2,0-3.6-0.6-4.6-1.8c-1-1.2-1.6-3.1-1.6-5.7c0-2.5,0.5-4.4,1.4-5.6c0.9-1.2,2.2-1.8,3.9-1.8
            c3.4,0,5.1,2.5,5.1,7.4V77.8z M268.7,72.3c-0.8,1-1.2,2.5-1.2,4.6h8.6c0-2.1-0.4-3.7-1.1-4.6c-0.7-0.9-1.7-1.4-3.1-1.4
            C270.5,70.9,269.5,71.4,268.7,72.3z"/>
    </g>
</g>
</svg>
