<svg baseProfile="tiny" xmlns="http://www.w3.org/2000/svg" width="100" viewBox="0 0 32 32"><path fill="#B8111D" d="M21.254 17.384c2.1-2.101 3.147-4.642 3.147-7.628 0-2.969-1.048-5.504-3.147-7.604-.62-.619-1.294-1.15-2.012-1.594l-.952 2.659c.359.26.706.545 1.036.874 1.571 1.564 2.356 3.452 2.356 5.665 0 2.23-.785 4.129-2.356 5.7-1.571 1.573-3.464 2.358-5.676 2.358h-.58l-.192.533-.794 2.185h1.566l7.304 10.945h3.322l-7.393-11.372c1.457-.359 2.915-1.266 4.371-2.721"/><path fill="#3E3D40" d="M4.76 31.477L15.995.523h.614L5.43 31.477z"/></svg>
