<?xml version="1.0" encoding="utf-8"?>
<!-- Generator: Adobe Illustrator 25.0.1, SVG Export Plug-In . SVG Version: 6.00 Build 0)  -->
<svg version="1.1" id="BASE_TRAVAIL" xmlns="http://www.w3.org/2000/svg" xmlns:xlink="http://www.w3.org/1999/xlink" x="0px"
     y="0px" viewBox="0 0 291.2 152.2" style="enable-background:new 0 0 291.2 152.2;" xml:space="preserve">
<style type="text/css">
    .st0{fill:#FFFFFF;}
</style>
<g>
    <path class="st0" d="M60.7,90.6c2.2,1.1,5.7,2.3,9.3,2.3c3.9,0,5.9-1.6,5.9-4c0-2.2-1.8-3.6-6.2-5.1c-6.2-2.2-10.2-5.6-10.2-11
        c0-6.3,5.3-11,14-11c4.2,0,7.3,0.8,9.5,1.9l-1.9,6.7c-1.4-0.7-4.1-1.8-7.7-1.8c-3.6,0-5.4,1.7-5.4,3.5c0,2.3,2,3.4,6.9,5.2
        c6.5,2.4,9.6,5.8,9.6,11c0,6.2-4.7,11.4-14.9,11.4c-4.2,0-8.4-1.2-10.5-2.3L60.7,90.6z"/>
    <path class="st0" d="M98.8,89.7l-2.6,9.4h-8.7l11.3-36.8h10.9l11.6,36.8h-9l-2.9-9.4H98.8z M108.2,83.5l-2.3-7.8
        c-0.6-2.2-1.3-5-1.8-7.1h-0.2c-0.5,2.2-1.1,5-1.7,7.1l-2.3,7.8H108.2z"/>
    <path class="st0" d="M126.3,62.8c2.6-0.4,6.2-0.8,11.3-0.8c5.2,0,8.9,1,11.4,3c2.4,1.8,3.9,4.9,3.9,8.5c0,3.7-1.2,6.7-3.4,8.7
        c-2.9,2.6-7.2,3.9-12.1,3.9c-1.1,0-2.1-0.1-2.9-0.2v13.2h-8.3V62.8z M134.6,79.6c0.7,0.2,1.6,0.2,2.8,0.2c4.5,0,7.2-2.2,7.2-6
        c0-3.4-2.3-5.4-6.5-5.4c-1.7,0-2.9,0.1-3.5,0.3V79.6z"/>
</g>
<g>
    <path class="st0" d="M160.9,99.8V87.8l10.9-9.7c18.7-16.6,27.8-26.1,27.9-36c0-6.9-4.1-12.4-13.9-12.4c-7.3,0-13.8,3.6-18.2,6.9
        l0-15.1c6.3-4.8,10.7-7.6,22.1-7.6c19.4,0,29.9,11.2,29.9,26.5c0,14.2-10.2,25.5-22.7,36.4l-7.9,6.5v0.3h32.2v16.2H160.9z"/>
</g>
<polygon class="st0" points="237.1,99.8 228.7,99.8 235.3,68.8 243.7,68.8 "/>
<polygon class="st0" points="245.4,62.6 237,62.6 238.9,54.3 247.3,54.3 "/>
<g>
    <path class="st0" d="M278.7,67.8c-2.7,30.3-57.5,54.5-124.6,54.5c-68.9,0-124.8-25.5-124.8-56.9c0-11.9,8-22.9,21.6-32
        C30.5,44.7,18.1,59.6,18.1,75.8c0,35.4,58.6,64.1,130.8,64.1c72.3,0,130.8-28.7,130.8-64.1C279.8,73.1,279.4,70.4,278.7,67.8z"/>
</g>
</svg>
