<?xml version="1.0" encoding="utf-8"?>
<!-- Generator: Adobe Illustrator 25.0.1, SVG Export Plug-In . SVG Version: 6.00 Build 0)  -->
<svg version="1.1" id="BASE_TRAVAIL" xmlns="http://www.w3.org/2000/svg" xmlns:xlink="http://www.w3.org/1999/xlink" x="0px"
     y="0px" viewBox="0 0 172.1 85.6" style="enable-background:new 0 0 172.1 85.6;" xml:space="preserve">
<style type="text/css">
    .st0{fill:#13235B;}
</style>
<g>
    <path class="st0" d="M33.5,50.9c1.3,0.7,3.4,1.4,5.6,1.4c2.3,0,3.5-1,3.5-2.4c0-1.3-1.1-2.2-3.7-3.1c-3.7-1.3-6.1-3.3-6.1-6.6
        c0-3.8,3.2-6.6,8.4-6.6c2.5,0,4.4,0.5,5.7,1.1l-1.1,4c-0.9-0.4-2.5-1.1-4.6-1.1c-2.2,0-3.2,1-3.2,2.1c0,1.4,1.2,2,4.1,3.1
        c3.9,1.4,5.7,3.5,5.7,6.6c0,3.7-2.8,6.9-9,6.9c-2.5,0-5.1-0.7-6.3-1.4L33.5,50.9z"/>
    <path class="st0" d="M56.4,50.3L54.8,56h-5.2l6.8-22.1H63L69.9,56h-5.4l-1.7-5.7H56.4z M62,46.6l-1.4-4.7c-0.4-1.3-0.8-3-1.1-4.3
        h-0.1c-0.3,1.3-0.7,3-1,4.3l-1.4,4.7H62z"/>
    <path class="st0" d="M72.9,34.2c1.6-0.3,3.7-0.5,6.8-0.5c3.1,0,5.3,0.6,6.8,1.8c1.4,1.1,2.3,2.9,2.3,5.1c0,2.2-0.7,4-2,5.2
        c-1.7,1.6-4.3,2.3-7.3,2.3c-0.7,0-1.3,0-1.7-0.1V56h-5V34.2z M77.9,44.3c0.4,0.1,1,0.1,1.7,0.1c2.7,0,4.3-1.3,4.3-3.6
        c0-2-1.4-3.2-3.9-3.2c-1,0-1.7,0.1-2.1,0.2V44.3z"/>
</g>
<g>
    <path class="st0" d="M93.7,56.4v-7.2l6.5-5.9c11.2-10,16.7-15.7,16.7-21.6c0-4.1-2.4-7.4-8.3-7.4c-4.4,0-8.3,2.2-10.9,4.1l0-9.1
        c3.8-2.9,6.4-4.6,13.3-4.6c11.6,0,17.9,6.7,17.9,15.9c0,8.5-6.1,15.3-13.6,21.8l-4.7,3.9v0.2h19.3v9.7H93.7z"/>
</g>
<polygon class="st0" points="139.4,56.4 134.4,56.4 138.3,37.8 143.3,37.8 "/>
<polygon class="st0" points="144.4,34.1 139.3,34.1 140.5,29.1 145.5,29.1 "/>
<g>
    <path class="st0" d="M164.4,37.2c-1.6,18.2-34.5,32.7-74.8,32.7c-41.4,0-74.9-15.3-74.9-34.2c0-7.1,4.8-13.7,13-19.2
        C15.4,23.3,8,32.3,8,42c0,21.2,35.2,38.5,78.5,38.5c43.4,0,78.5-17.2,78.5-38.5C165,40.4,164.8,38.8,164.4,37.2z"/>
</g>
</svg>
